<svg width="181" height="181" viewBox="0 0 181 181" fill="none" xmlns="http://www.w3.org/2000/svg">
<path d="M169.182 10.7202V9.18921C169.182 4.13499 165.047 0 159.993 0H21.0074C15.9532 0 11.8177 4.13499 11.8177 9.18921V10.7202C11.8177 15.7745 15.9527 19.9094 21.0074 19.9094H24.5582C26.3821 19.9094 26.2378 21.6119 26.2378 22.4822C26.2378 32.6896 30.4228 44.4891 33.6302 52.0279C40.0628 67.1463 54.7075 79.5492 66.7289 88.3069C68.9233 89.9057 68.397 91.3898 67.1228 92.4106C55.4631 101.751 40.1331 113.689 33.6307 128.972C30.4733 136.392 26.3696 147.94 26.2414 158.035C26.2284 159.07 26.6432 161.09 24.1679 161.09H21.0079C15.9537 161.09 11.8182 165.225 11.8182 170.279V171.811C11.8182 176.864 15.9532 181 21.0079 181H159.994C165.048 181 169.183 176.864 169.183 171.811V170.279C169.183 165.225 165.048 161.09 159.994 161.09H158.006C154.358 161.09 154.709 158.358 154.747 156.943C155.001 147.514 152.229 136.79 148.172 128.732C139.147 110.812 124.915 99.4143 116.15 92.8202C114.248 91.3898 114.056 89.6191 116.15 88.1792C125.187 81.9629 139.147 70.1875 148.172 52.2666C152.491 43.6871 155.355 32.083 154.658 22.2398C154.603 21.4509 154.548 19.9094 156.616 19.9094H159.994C165.048 19.9094 169.182 15.775 169.182 10.7202ZM140.84 48.5756C132.444 65.25 118.971 77.1745 107.252 84.36C106.547 84.7931 105.201 85.8614 105.201 88.8426V92.406C105.201 95.567 106.635 96.2606 107.389 96.7238C119.107 103.918 132.477 115.815 140.84 132.424C144.703 140.098 146.711 149.377 146.512 156.761C146.471 158.296 147.061 161.09 143.066 161.09H37.8465C34.329 161.09 34.4723 159.334 34.4807 158.373C34.5416 151.654 36.8585 142.346 41.1816 132.185C48.6876 114.544 64.4381 103.531 74.9233 96.9703C75.3902 96.678 76.2933 96.1538 76.2933 93.3632V88.0292C76.2933 85.1454 74.9092 84.0229 74.1792 83.5633C63.7059 76.9515 48.5115 66.0447 41.1816 48.8153C36.8131 38.5484 34.4937 29.1529 34.4796 22.4175C34.4786 21.5348 34.5896 19.91 36.5437 19.91H144.195C146.367 19.91 146.346 21.5515 146.417 22.4264C147.034 30.058 145.028 40.2592 140.84 48.5756Z" fill="#FF2E2E"/>
<path d="M88.3491 102.241L52.524 147.072C51.3411 148.553 51.9237 149.764 53.8185 149.764H127.181C129.076 149.764 129.659 148.553 128.475 147.072L92.6509 102.241C91.4674 100.76 89.532 100.76 88.3491 102.241Z" fill="#FF2E2E"/>
<path d="M88.0599 81.4069C89.4023 82.7451 91.5977 82.7451 92.939 81.4069L110.957 63.4344C112.298 62.0962 111.846 61.0009 109.95 61.0009H71.0478C69.1526 61.0009 68.6997 62.0962 70.0411 63.4344L88.0599 81.4069Z" fill="#FF2E2E"/>
</svg>
