<svg width="264" height="285" viewBox="0 0 264 285" fill="none" xmlns="http://www.w3.org/2000/svg">
<g clip-path="url(#clip0_7_64)">
<path d="M227.157 84.284C231.847 86.514 233.857 92.144 231.627 96.834L228.747 102.894L83.057 33.704L85.937 27.644C88.167 22.944 93.807 20.944 98.497 23.174L227.157 84.284Z" fill="#BC1A1A"/>
<path d="M181.687 102.724L169.447 249.604C168.777 257.684 161.897 264.014 153.787 264.014H80.247C72.147 264.014 65.267 257.684 64.597 249.604L52.357 102.724H181.687V102.724Z" fill="#BC1A1A"/>
<path d="M235.737 66.214C250.387 73.174 256.647 90.764 249.687 105.414L242.527 120.504C240.807 124.114 237.227 126.224 233.487 126.224C232.047 126.224 230.587 125.914 229.197 125.254L200.997 111.854L189.377 251.264C187.847 269.624 172.217 284.014 153.787 284.014H80.247C61.827 284.014 46.197 269.624 44.667 251.264L31.517 93.554C31.287 90.774 32.237 88.014 34.127 85.954C36.017 83.894 38.687 82.724 41.487 82.724H139.667L65.447 47.474C63.057 46.344 61.207 44.294 60.317 41.794C59.427 39.304 59.567 36.554 60.707 34.154L67.877 19.064C74.837 4.40399 92.417 -1.85601 107.077 5.10399L135.077 18.404L136.537 15.354C139.607 8.87399 145.027 3.97399 151.787 1.56399C158.547 -0.836009 165.837 -0.466009 172.317 2.61399L196.447 14.064C209.817 20.424 215.537 36.474 209.187 49.854L207.727 52.914L235.737 66.214ZM231.627 96.834C233.857 92.144 231.847 86.514 227.157 84.284L98.497 23.174C93.807 20.944 88.167 22.944 85.937 27.644L83.057 33.704L228.747 102.894L231.627 96.834ZM191.117 41.274C192.737 37.854 191.277 33.754 187.857 32.134L163.737 20.674C162.087 19.894 160.227 19.794 158.497 20.414C156.767 21.024 155.387 22.274 154.597 23.934L153.147 26.984L189.667 44.334L191.117 41.274ZM169.447 249.604L181.687 102.724H52.357L64.597 249.604C65.267 257.684 72.147 264.014 80.247 264.014H153.787C161.897 264.014 168.777 257.684 169.447 249.604Z" fill="black"/>
</g>
<defs>
<clipPath id="clip0_7_64">
<rect width="284.014" height="284.014" fill="white"/>
</clipPath>
</defs>
</svg>
