<svg width="71" height="71" viewBox="0 0 71 71" fill="none" xmlns="http://www.w3.org/2000/svg">
<path fill-rule="evenodd" clip-rule="evenodd" d="M17.75 17.75H39.9375C42.3882 17.75 44.375 15.7632 44.375 13.3125C44.375 10.8618 42.3882 8.875 39.9375 8.875H17.75C12.8485 8.875 8.875 12.8485 8.875 17.75V53.25C8.875 58.1517 12.8485 62.125 17.75 62.125H53.25C58.1517 62.125 62.125 58.1517 62.125 53.25V44.375C62.125 41.9242 60.1383 39.9375 57.6875 39.9375C55.2367 39.9375 53.25 41.9242 53.25 44.375V53.25H17.75V17.75ZM67.4815 10.1747C65.7487 8.44177 62.9388 8.44177 61.206 10.1747L37.7188 33.6619L34.2003 30.1434C32.4673 28.4105 29.6577 28.4105 27.9247 30.1434C26.1918 31.8764 26.1918 34.6861 27.9247 36.4191L34.581 43.0753C35.4132 43.9075 36.5418 44.375 37.7188 44.375C38.8957 44.375 40.0243 43.9075 40.8566 43.0753L67.4815 16.4503C69.2144 14.7173 69.2144 11.9077 67.4815 10.1747Z" fill="#2AD500"/>
</svg>
