<svg width="30" height="30" viewBox="0 0 30 30" fill="none" xmlns="http://www.w3.org/2000/svg">
<path d="M14.7527 14.5443V15H3.46573C3.46573 14.8476 3.46573 14.6952 3.47579 14.5443H14.7527Z" fill="#27AAE1"/>
<path d="M14.7527 3.47009V15H3.46573C3.46573 14.8477 3.46573 14.6953 3.47579 14.5444H14.6881V3.47584L14.7527 3.47009Z" fill="#27AAE1"/>
<path d="M15.3048 0.721558H15C14.9166 0.721558 14.8347 0.721558 14.7528 0.721558C10.9974 0.794293 7.42251 2.34653 4.8054 5.04078C2.18829 7.73504 0.740545 11.3535 0.776914 15.1094C0.813284 18.8653 2.33083 22.4551 4.99962 25.0981C7.66841 27.7412 11.2727 29.2239 15.0288 29.2239C18.7849 29.2239 22.3891 27.7412 25.0579 25.0981C27.7267 22.4551 29.2442 18.8653 29.2806 15.1094C29.317 11.3535 27.8692 7.73504 25.2521 5.04078C22.635 2.34653 19.0601 0.794293 15.3048 0.721558ZM15 26.5328C12.02 26.5332 9.15559 25.38 7.00718 23.315C4.85876 21.2499 3.5932 18.4333 3.47581 15.4556C3.46863 15.3047 3.46575 15.1523 3.46575 14.9999C3.46575 14.8476 3.46575 14.6952 3.47581 14.5443H14.6881V3.47575H14.7456H14.9928C15.0949 3.47575 15.1969 3.47575 15.2976 3.47575C18.3269 3.55857 21.202 4.83044 23.301 7.01632C25.4 9.2022 26.5542 12.1264 26.5142 15.1566C26.4742 18.1869 25.243 21.0796 23.087 23.2092C20.931 25.3389 18.0305 26.53 15 26.5328Z" stroke="#00AEEF" stroke-miterlimit="10"/>
<path d="M26.6667 14.9936C26.6693 18.0487 25.4728 20.9828 23.3344 23.1652C21.196 25.3476 18.2865 26.6041 15.2312 26.6644C12.176 26.7248 9.21912 25.5843 6.99615 23.488C4.77318 21.3918 3.46165 18.5072 3.34352 15.4544C3.33625 15.3018 3.33334 15.1477 3.33334 14.9936H14.7506V3.33337H15.0007C15.104 3.33337 15.2072 3.33337 15.309 3.33337C18.3488 3.41371 21.237 4.67747 23.3585 6.85546C25.48 9.03345 26.667 11.9535 26.6667 14.9936Z" fill="#00AEEF"/>
</svg>
